<svg width="20" height="24" viewBox="0 0 20 24" fill="none" xmlns="http://www.w3.org/2000/svg">
<path d="M20 21.1875C20 21.7053 19.5855 22.125 19.0741 22.125H18.1481V23.0625C18.1481 23.5803 17.7336 24 17.2222 24C16.7108 24 16.2963 23.5803 16.2963 23.0625V22.125H15.3704C14.859 22.125 14.4444 21.7053 14.4444 21.1875C14.4444 20.6697 14.859 20.25 15.3704 20.25H16.2963V19.3125C16.2963 18.7947 16.7108 18.375 17.2222 18.375C17.7336 18.375 18.1481 18.7947 18.1481 19.3125V20.25H19.0741C19.5855 20.25 20 20.6697 20 21.1875ZM20 6.5625V15.5625C20 16.0803 19.5855 16.5 19.0741 16.5C18.5627 16.5 18.1481 16.0803 18.1481 15.5625V7.5H16.2963V10.3125C16.2963 10.8303 15.8818 11.25 15.3704 11.25C14.859 11.25 14.4444 10.8303 14.4444 10.3125V7.5H5.55556V10.3125C5.55556 10.8303 5.14102 11.25 4.62963 11.25C4.11824 11.25 3.7037 10.8303 3.7037 10.3125V7.5H1.85185V22.125H11.6667C12.1781 22.125 12.5926 22.5447 12.5926 23.0625C12.5926 23.5803 12.1781 24 11.6667 24H0.925926C0.414537 24 0 23.5803 0 23.0625V6.5625C0 6.04472 0.414537 5.625 0.925926 5.625H3.7475C4.11532 2.46202 6.77884 0 10 0C13.2212 0 15.8847 2.46202 16.2525 5.625H19.0741C19.5855 5.625 20 6.04472 20 6.5625ZM14.3824 5.625C14.0287 3.49945 12.1983 1.875 10 1.875C7.80171 1.875 5.97134 3.49945 5.61764 5.625H14.3824Z" fill="#650B0B"/>
</svg>
