<svg xmlns="http://www.w3.org/2000/svg">
  <symbol id="bottle" viewBox="0 0 30 30">
    <g>
      <path d="M24.5512 0C22.7466 0 21.1443 0.882832 20.1521 2.23945H14.7215V0.882129C14.7215 0.396738 14.328 0.00322266 13.8426 0.00322266H9.13412C8.64873 0.00322266 8.25522 0.396738 8.25522 0.882129V2.23945H6.8117C6.32631 2.23945 5.93279 2.63297 5.93279 3.11836C5.93279 3.60375 6.32631 3.99727 6.8117 3.99727H8.25522V5.58891H8.04961C7.56422 5.58891 7.1707 5.98242 7.1707 6.46781V9.98982C2.96947 11.6954 0 15.8118 0 20.6075C0 22.4306 0.440273 24.2451 1.27318 25.8548C2.0785 27.4113 3.2526 28.7854 4.66846 29.8287C4.81951 29.9399 5.00221 30 5.18982 30H17.7868C17.9744 30 18.1571 29.9399 18.3081 29.8287C19.724 28.7854 20.898 27.4112 21.7034 25.8548C22.5363 24.245 22.9765 22.4306 22.9765 20.6075C22.9765 15.8119 20.007 11.6955 15.8059 9.98994V6.46781C15.8059 5.98242 15.4124 5.58891 14.927 5.58891H14.7214V3.99727H19.2998C19.1713 4.46103 19.1023 4.9493 19.1023 5.4535C19.1023 8.46053 21.5466 10.907 24.5511 10.907C27.5555 10.907 30 8.46053 30 5.4535C30 2.44646 27.5556 0 24.5512 0ZM8.92846 9.70816V7.34672H14.0481V9.70816H8.92846ZM21.2188 20.6075C21.2188 22.1728 20.8566 23.6664 20.1422 25.047C19.5034 26.2817 18.5902 27.3813 17.4909 28.2422H5.48572C4.38656 27.3813 3.47326 26.2818 2.83441 25.047C2.12004 23.6664 1.75781 22.1728 1.75781 20.6075C1.75781 16.396 4.4642 12.8036 8.234 11.466H14.7426C18.5125 12.8036 21.2188 16.396 21.2188 20.6075ZM10.013 5.58885V1.76104H12.9636V5.58891L10.013 5.58885ZM24.5512 9.14918C22.516 9.14918 20.8602 7.49133 20.8602 5.4535C20.8602 3.41566 22.5159 1.75781 24.5512 1.75781C26.5864 1.75781 28.2422 3.41566 28.2422 5.4535C28.2422 7.49133 26.5864 9.14918 24.5512 9.14918Z" fill="#C6314C"/>
    </g>
  </symbol>
</svg>