<svg width="13" height="13" viewBox="0 0 13 13" fill="none" xmlns="http://www.w3.org/2000/svg">
<path d="M12.9911 10.6998C12.9498 10.3874 12.7695 10.1181 12.4964 9.96087L9.28924 8.11432C8.89644 7.88816 8.39813 7.954 8.07751 8.27458L7.4458 8.90629C7.2777 9.07442 7.01175 9.0893 6.82731 8.94085C6.32931 8.54014 5.83896 8.09913 5.36993 7.63007C4.9009 7.16104 4.45989 6.67073 4.05914 6.1727C3.9107 5.98823 3.92555 5.72231 4.09371 5.55418L4.72539 4.92248C5.04598 4.60192 5.1119 4.10366 4.88568 3.71078L3.03912 0.503633C2.88189 0.230555 2.61257 0.050243 2.30018 0.00891336C1.98777 -0.0325005 1.6808 0.0716939 1.45798 0.294514L0.506128 1.24639C-0.158209 1.91075 -0.168879 3.12599 0.476085 4.66829C1.09626 6.15127 2.2536 7.78379 3.73488 9.26512C5.21621 10.7464 6.84874 11.9038 8.33175 12.5239C9.09093 12.8414 9.7708 13 10.3448 13C10.9369 13 11.4163 12.8312 11.7537 12.4939L12.7055 11.542C12.9283 11.3192 13.0324 11.0122 12.9911 10.6998ZM9.07911 8.47929L12.2863 10.3258C12.4449 10.4172 12.5496 10.5736 12.5736 10.755C12.5937 10.9073 12.5542 11.0572 12.4645 11.178L8.20223 8.74549L8.37533 8.5724C8.56151 8.38622 8.85098 8.34795 9.07911 8.47929ZM2.24493 0.426449C2.42639 0.450455 2.58281 0.555183 2.67412 0.713791L4.52068 3.92093C4.65208 4.14912 4.61378 4.43854 4.4276 4.62469L4.2686 4.78369L1.82267 0.535529C1.92266 0.461489 2.04224 0.421283 2.1669 0.421283C2.19276 0.421283 2.21884 0.422996 2.24493 0.426449ZM11.4558 12.196C10.928 12.7238 9.84857 12.7017 8.49424 12.1353C7.06061 11.5358 5.47618 10.4107 4.03272 8.9673C2.58927 7.52385 1.46415 5.9394 0.864647 4.50581C0.298243 3.15145 0.276147 2.072 0.803944 1.54417L1.51057 0.837527L3.96017 5.09212L3.79589 5.2564C3.47539 5.57693 3.44748 6.08434 3.731 6.43676C4.14118 6.94653 4.59241 7.44821 5.07209 7.92789C5.55182 8.40758 6.0535 8.85881 6.56325 9.26899C6.91562 9.55252 7.42303 9.52463 7.74362 9.20408L7.89349 9.0542L12.1617 11.4901L11.4558 12.196Z" fill="#554146"/>
</svg>
